# xmcd
#
# Track frame offsets: 
#        183
#        14883
#        34083
#        48633
#        66708
#        87558
#        104958
#        127308
#        143808
#        171713
#        185793
#        202060
#        212843
#        227433
#        237933
#        254230
#        269875
#        290633
#        305633
#        324323
#
# Disc length: 4572 seconds
#
# Revision: 0
# Processed by: cddbd v1.5.2PL0 Copyright (c) Steve Scherf et al.
# Submitted via: ExactAudioCopy v1.3
#
DISCID=6611da14
DTITLE=Savoy Brown - Savage Return, Make Me Sweet
DYEAR=1978
DGENRE=Blues
TTITLE0=The First Night
TTITLE1=Don't Do It Baby, Do It
TTITLE2=Spirit High
TTITLE3=Play It Right
TTITLE4=Walk Before You Run
TTITLE5=My Own Man
TTITLE6=I'm Alright Now
TTITLE7=Rock' N' Roll Man
TTITLE8=Double Lover
TTITLE9=Limousine Boogie(Hey Hey Mama)
TTITLE10=Just For Kicks
TTITLE11=Good Time Lover
TTITLE12=Goin' Down
TTITLE13=Hard Way To Go
TTITLE14=Don't Tell Me It's Over
TTITLE15=Runnin' with ABadCrowd
TTITLE16=Tell Mama
TTITLE17=Shot In The Head
TTITLE18=Breakin' Up
TTITLE19=On The Prowl
EXTD=
EXTT0=
EXTT1=
EXTT2=
EXTT3=
EXTT4=
EXTT5=
EXTT6=
EXTT7=
EXTT8=
EXTT9=
EXTT10=
EXTT11=
EXTT12=
EXTT13=
EXTT14=
EXTT15=
EXTT16=
EXTT17=
EXTT18=
EXTT19=
PLAYORDER=
